<svg width="316" height="316" viewBox="0 0 316 316" fill="none" xmlns="http://www.w3.org/2000/svg">
<path d="M246.152 241.938C240 241.96 233.904 240.762 228.218 238.415C222.53 236.068 217.364 232.616 213.019 228.261L165.677 180.889C165.676 180.888 165.674 180.886 165.673 180.885C164.092 179.375 161.989 178.532 159.802 178.532C157.616 178.532 155.513 179.375 153.932 180.885L106.427 228.39C102.084 232.752 96.9191 236.211 91.2317 238.565C85.5443 240.919 79.4467 242.123 73.2912 242.108H65.2296L124.376 301.254L246.152 241.938ZM246.152 241.938C246.152 241.938 246.153 241.938 246.154 241.938L250.754 241.969M246.152 241.938L250.754 241.969M250.754 241.969L191.479 301.254C182.574 310.14 170.508 315.13 157.927 315.13C145.347 315.13 133.281 310.14 124.376 301.254L250.754 241.969Z" stroke="#2A69EC"/>
<path d="M191.379 14.4012L191.379 14.4011C186.973 9.99401 181.743 6.49803 175.986 4.11284C170.229 1.72765 164.059 0.5 157.827 0.5C151.596 0.5 145.426 1.72765 139.669 4.11284C133.912 6.49801 128.682 9.99397 124.276 14.401C124.276 14.401 124.276 14.4011 124.276 14.4011L65.2289 73.4976H73.3011C79.4567 73.4812 85.5545 74.685 91.242 77.0395C96.9292 79.3938 102.093 82.852 106.436 87.2141L191.379 14.4012ZM191.379 14.4012L250.645 73.6676M191.379 14.4012L250.645 73.6676M250.645 73.6676H246.154C239.997 73.648 233.897 74.8514 228.209 77.2079C222.521 79.5645 217.357 83.0272 213.018 87.3952L165.679 134.734C164.122 136.286 162.012 137.158 159.812 137.158C157.613 137.158 155.504 136.287 153.946 134.734L250.645 73.6676ZM153.945 134.734L106.437 87.2149L153.945 134.734Z" stroke="#2A69EC"/>
<mask id="path-3-inside-1_1849_1483" fill="white">
<path d="M301.583 123.908L265.253 87.5776C264.433 87.9125 263.558 88.089 262.673 88.0976H246.153C237.556 88.1191 229.316 91.5332 223.223 97.5976L175.883 144.908C171.619 149.163 165.842 151.553 159.818 151.553C153.794 151.553 148.016 149.163 143.753 144.908L96.2328 97.4176C90.1415 91.3495 81.9007 87.9318 73.3028 87.9076H53.0228C52.187 87.8888 51.361 87.7229 50.5828 87.4176L14.0228 123.908C5.04312 132.906 0 145.1 0 157.813C0 170.525 5.04312 182.719 14.0228 191.718L50.5028 228.198C51.2794 227.887 52.1064 227.721 52.9428 227.708H73.3028C81.9005 227.682 90.1409 224.265 96.2328 218.198L143.743 170.688C152.333 162.108 167.303 162.108 175.883 170.688L223.223 218.018C229.316 224.082 237.556 227.496 246.153 227.518H262.673C263.558 227.524 264.434 227.7 265.253 228.038L301.583 191.708C306.036 187.256 309.569 181.97 311.979 176.153C314.39 170.335 315.63 164.1 315.63 157.803C315.63 151.506 314.39 145.27 311.979 139.453C309.569 133.635 306.036 128.349 301.583 123.898"/>
</mask>
<path d="M265.253 87.5776L265.96 86.8705L265.49 86.4004L264.874 86.6519L265.253 87.5776ZM262.673 88.0976V89.0977L262.683 89.0976L262.673 88.0976ZM246.153 88.0976L246.153 87.0976L246.15 87.0976L246.153 88.0976ZM223.223 97.5976L222.517 96.8888L222.516 96.8903L223.223 97.5976ZM175.883 144.908L176.589 145.615L176.59 145.615L175.883 144.908ZM143.753 144.908L143.046 145.615L143.046 145.615L143.753 144.908ZM96.2328 97.4176L96.9397 96.7103L96.9385 96.7091L96.2328 97.4176ZM73.3028 87.9076L73.3056 86.9076H73.3028V87.9076ZM53.0228 87.9076L53.0003 88.9073L53.0115 88.9076H53.0228V87.9076ZM50.5828 87.4176L50.948 86.4867L50.3392 86.2478L49.8764 86.7098L50.5828 87.4176ZM14.0228 123.908L13.3164 123.2L13.3149 123.201L14.0228 123.908ZM0 157.813H-1H0ZM14.0228 191.718L13.3149 192.424L13.3157 192.425L14.0228 191.718ZM50.5028 228.198L49.7957 228.905L50.2621 229.371L50.8745 229.126L50.5028 228.198ZM52.9428 227.708V226.708H52.935L52.9273 226.708L52.9428 227.708ZM73.3028 227.708V228.708L73.3057 228.708L73.3028 227.708ZM96.2328 218.198L96.9385 218.906L96.9399 218.905L96.2328 218.198ZM143.743 170.688L143.036 169.98L143.036 169.98L143.743 170.688ZM175.883 170.688L175.176 171.395L175.176 171.395L175.883 170.688ZM223.223 218.018L222.516 218.725L222.517 218.726L223.223 218.018ZM246.153 227.518L246.15 228.518H246.153V227.518ZM262.673 227.518L262.68 226.518H262.673V227.518ZM265.253 228.038L264.872 228.962L265.488 229.216L265.96 228.745L265.253 228.038ZM301.583 191.708L300.876 191L300.876 191L301.583 191.708ZM302.29 123.2L265.96 86.8705L264.546 88.2847L300.876 124.615L302.29 123.2ZM264.874 86.6519C264.172 86.939 263.422 87.0902 262.663 87.0977L262.683 89.0976C263.694 89.0877 264.695 88.886 265.631 88.5033L264.874 86.6519ZM262.673 87.0976H246.153V89.0976H262.673V87.0976ZM246.15 87.0976C237.29 87.1198 228.797 90.6385 222.517 96.8888L223.928 98.3064C229.834 92.4279 237.822 89.1185 246.155 89.0976L246.15 87.0976ZM222.516 96.8903L175.176 144.2L176.59 145.615L223.93 98.3049L222.516 96.8903ZM175.176 144.2C171.1 148.268 165.577 150.553 159.818 150.553V152.553C166.107 152.553 172.138 150.058 176.589 145.615L175.176 144.2ZM159.818 150.553C154.059 150.553 148.535 148.268 144.459 144.2L143.046 145.615C147.497 150.058 153.529 152.553 159.818 152.553V150.553ZM144.46 144.2L96.9397 96.7103L95.5259 98.1249L143.046 145.615L144.46 144.2ZM96.9385 96.7091C90.6605 90.4551 82.1671 86.9325 73.3056 86.9076L73.3 88.9076C81.6344 88.931 89.6225 92.244 95.527 98.1261L96.9385 96.7091ZM73.3028 86.9076H53.0228V88.9076H73.3028V86.9076ZM53.0453 86.9079C52.3269 86.8917 51.6169 86.7491 50.948 86.4867L50.2176 88.3485C51.1051 88.6967 52.0471 88.8859 53.0003 88.9073L53.0453 86.9079ZM49.8764 86.7098L13.3164 123.2L14.7292 124.615L51.2892 88.1254L49.8764 86.7098ZM13.3149 123.201C4.14818 132.388 -1 144.835 -1 157.813H1C1 145.365 5.93805 133.425 14.7306 124.614L13.3149 123.201ZM-1 157.813C-1 170.79 4.14818 183.238 13.3149 192.424L14.7306 191.011C5.93805 182.2 1 170.26 1 157.813H-1ZM13.3157 192.425L49.7957 228.905L51.2099 227.49L14.7299 191.01L13.3157 192.425ZM50.8745 229.126C51.5377 228.86 52.244 228.719 52.9583 228.707L52.9273 226.708C51.9687 226.723 51.021 226.913 50.1311 227.269L50.8745 229.126ZM52.9428 228.708H73.3028V226.708H52.9428V228.708ZM73.3057 228.708C82.167 228.682 90.6598 225.159 96.9385 218.906L95.5271 217.489C89.6219 223.37 81.6341 226.683 73.2999 226.708L73.3057 228.708ZM96.9399 218.905L144.45 171.395L143.036 169.98L95.5257 217.49L96.9399 218.905ZM144.449 171.395C152.649 163.205 166.986 163.205 175.176 171.395L176.59 169.98C167.619 161.01 152.016 161.01 143.036 169.98L144.449 171.395ZM175.176 171.395L222.516 218.725L223.93 217.31L176.59 169.98L175.176 171.395ZM222.517 218.726C228.797 224.977 237.29 228.495 246.15 228.518L246.155 226.518C237.822 226.497 229.834 223.187 223.928 217.309L222.517 218.726ZM246.153 228.518H262.673V226.518H246.153V228.518ZM262.666 228.518C263.423 228.523 264.172 228.674 264.872 228.962L265.634 227.113C264.696 226.727 263.693 226.525 262.68 226.518L262.666 228.518ZM265.96 228.745L302.29 192.415L300.876 191L264.546 227.33L265.96 228.745ZM302.29 192.415C306.836 187.87 310.443 182.474 312.903 176.535L311.056 175.77C308.696 181.466 305.236 186.641 300.876 191L302.29 192.415ZM312.903 176.535C315.364 170.596 316.63 164.231 316.63 157.803H314.63C314.63 163.968 313.416 170.074 311.056 175.77L312.903 176.535ZM316.63 157.803C316.63 151.374 315.364 145.009 312.903 139.07L311.056 139.835C313.416 145.532 314.63 151.637 314.63 157.803H316.63ZM312.903 139.07C310.443 133.131 306.836 127.735 302.29 123.19L300.876 124.605C305.236 128.964 308.696 134.139 311.056 139.835L312.903 139.07Z" fill="#2A69EC" mask="url(#path-3-inside-1_1849_1483)"/>
</svg>
